<svg width="903" height="673" viewBox="0 0 903 673" fill="none" xmlns="http://www.w3.org/2000/svg">
<path d="M560.11 641.747C560.11 659.054 525.313 673 482.407 673C439.505 673 404.708 658.929 404.708 641.747C404.708 624.439 439.505 610.492 482.407 610.492C525.313 610.492 560.11 624.439 560.11 641.747Z" fill="#9EDCF2"/>
<path d="M560.11 641.747C560.11 659.054 525.313 673 482.407 673C439.505 673 404.708 658.929 404.708 641.747C404.708 624.439 439.505 610.492 482.407 610.492C525.313 610.492 560.11 624.439 560.11 641.747Z" fill="#7B61FF"/>
<path d="M393.684 549.728L391.415 558.694C391.415 558.694 390.876 561.931 393.469 562.553C396.277 562.429 396.063 559.441 395.845 558.569L393.684 549.728Z" fill="#9EDCF2"/>
<path d="M619.442 512L619.657 510.879C596.853 505.649 573.51 505.525 559.352 506.272C561.625 496.684 562.382 485.477 562.382 473.15C562.382 455.344 556.544 441.149 547.249 430.44C548.871 424.339 551.032 410.767 545.091 393.459C545.091 393.459 534.498 389.599 510.398 408.152C500.995 405.412 490.946 404.043 480.896 404.043C469.871 404.043 458.743 405.661 448.261 408.899C423.403 389.35 412.489 393.334 412.489 393.334C405.355 413.88 409.785 429.195 411.085 432.931C402.654 443.39 397.574 456.714 397.574 473.026C397.574 485.353 398.764 496.435 401.79 506.023C387.524 505.4 365.046 505.649 343 510.755L343.218 511.875C365.26 506.77 387.957 506.645 402.115 507.268C402.761 509.26 403.519 511.252 404.276 513.12C390.225 513.619 366.343 515.735 343.432 523.206L343.757 524.327C366.882 516.856 390.983 514.863 404.923 514.366C413.354 532.296 429.78 544.001 459.175 547.612C454.959 550.849 450.744 556.328 449.015 565.667C443.288 568.78 425.347 576.5 414.54 555.083C414.54 555.083 408.492 542.382 396.927 541.386C396.927 541.386 385.688 541.137 396.17 549.479C396.17 549.479 403.626 553.589 408.813 568.904C408.813 568.904 415.622 595.053 448.15 586.586V613.357C448.15 613.357 447.504 622.945 439.83 626.058C439.83 626.058 435.293 629.669 440.155 631.661C440.155 631.661 461.229 633.654 461.229 613.731V584.345C461.229 584.345 460.361 572.64 465.334 568.655V616.968C465.334 616.968 465.009 628.548 459.822 632.906C459.822 632.906 456.364 640.004 463.93 638.136C463.93 638.136 478.41 635.77 479.06 616.221L479.381 567.285H482.84L483.165 616.221C483.815 635.646 498.294 638.136 498.294 638.136C505.861 640.128 502.403 632.906 502.403 632.906C497.215 628.548 496.89 616.968 496.89 616.968V569.029C501.86 573.511 500.995 584.345 500.995 584.345V613.731C500.995 633.654 522.07 631.661 522.07 631.661C526.932 629.669 522.395 626.058 522.395 626.058C514.831 622.821 514.074 613.357 514.074 613.357V574.757C514.074 559.69 508.562 551.721 503.157 547.612C534.498 544.001 549.521 532.421 556.437 514.241C570.159 514.615 594.91 516.607 618.467 524.327L618.792 523.206C595.342 515.611 570.809 513.619 556.869 513.12C557.516 511.252 558.059 509.385 558.599 507.393C573.078 506.77 596.532 506.77 619.442 512Z" fill="#010101"/>
<path d="M531.69 472.278C538.389 479.376 542.387 487.843 542.387 496.933C542.387 539.767 514.721 540.888 480.571 540.888C446.421 540.888 418.756 534.911 418.756 496.933C418.756 487.843 422.646 479.376 429.348 472.403C440.48 460.698 459.282 466.924 480.571 466.924C501.863 466.924 520.558 460.573 531.69 472.278Z" fill="#F5CCB3"/>
<path d="M460.04 499.174C460.04 511.003 454.309 520.467 447.179 520.467C440.048 520.467 434.318 510.879 434.318 499.174C434.318 487.345 440.048 477.882 447.179 477.882C454.309 477.757 460.04 487.345 460.04 499.174Z" fill="white"/>
<path d="M455.931 499.423C455.931 507.268 452.041 513.618 447.396 513.618C442.641 513.618 438.858 507.268 438.858 499.423C438.858 491.578 442.749 485.228 447.396 485.228C452.041 485.228 455.931 491.578 455.931 499.423Z" fill="#AF5C51"/>
<path d="M529.097 499.174C529.097 511.003 523.366 520.467 516.236 520.467C509.101 520.467 503.374 510.879 503.374 499.174C503.374 487.345 509.101 477.882 516.236 477.882C523.259 477.757 529.097 487.345 529.097 499.174Z" fill="white"/>
<path d="M524.881 499.423C524.881 507.268 520.991 513.618 516.343 513.618C511.588 513.618 507.804 507.268 507.804 499.423C507.804 491.578 511.695 485.228 516.343 485.228C521.098 485.228 524.881 491.578 524.881 499.423Z" fill="#AF5C51"/>
<path d="M484.029 518.101C484.029 520.093 482.625 521.836 480.789 521.836C479.06 521.836 477.545 520.217 477.545 518.101C477.545 515.984 478.949 514.365 480.789 514.365C482.518 514.365 484.029 515.984 484.029 518.101Z" fill="#AF5C51"/>
<path d="M473.33 527.44C473.115 526.817 473.44 526.194 473.98 525.946C474.519 525.696 475.059 526.07 475.276 526.693C476.141 529.432 478.302 531.175 480.789 531.175C483.272 531.175 485.433 529.307 486.298 526.693C486.516 526.07 487.055 525.696 487.595 525.946C488.138 526.194 488.459 526.817 488.245 527.44C487.162 531.051 484.136 533.541 480.789 533.541C477.438 533.541 474.412 531.051 473.33 527.44Z" fill="#AF5C51"/>
<path d="M401.897 544.374C401.897 545.37 400.925 546.117 399.628 546.117C398.439 546.117 397.36 545.37 397.36 544.374C397.36 543.378 398.331 542.631 399.628 542.631C400.925 542.631 401.897 543.378 401.897 544.374Z" fill="#C4E5D9"/>
<path d="M408.166 548.358C408.166 549.354 407.195 550.102 405.898 550.102C404.708 550.102 403.626 549.354 403.626 548.358C403.626 547.362 404.601 546.615 405.898 546.615C407.195 546.615 408.166 547.362 408.166 548.358Z" fill="#C4E5D9"/>
<path d="M411.946 553.588C411.946 554.584 410.975 555.331 409.678 555.331C408.492 555.331 407.409 554.584 407.409 553.588C407.409 552.592 408.381 551.845 409.678 551.845C410.975 551.72 411.946 552.592 411.946 553.588Z" fill="#C4E5D9"/>
<path d="M415.405 559.565C415.405 560.561 414.433 561.308 413.136 561.308C411.95 561.308 410.867 560.561 410.867 559.565C410.867 558.569 411.839 557.822 413.136 557.822C414.433 557.697 415.405 558.569 415.405 559.565Z" fill="#C4E5D9"/>
<path d="M419.188 565.044C419.188 566.04 418.216 566.787 416.919 566.787C415.73 566.787 414.651 566.04 414.651 565.044C414.651 564.048 415.622 563.301 416.919 563.301C418.216 563.301 419.188 564.048 419.188 565.044Z" fill="#C4E5D9"/>
<path d="M424.375 569.9C424.375 570.896 423.403 571.643 422.106 571.643C420.917 571.643 419.838 570.896 419.838 569.9C419.838 568.904 420.81 568.157 422.106 568.157C423.403 568.032 424.375 568.904 424.375 569.9Z" fill="#C4E5D9"/>
<path d="M431.617 573.013C431.617 574.009 430.645 574.756 429.348 574.756C428.158 574.756 427.076 574.009 427.076 573.013C427.076 572.017 428.051 571.27 429.348 571.27C430.645 571.27 431.617 572.017 431.617 573.013Z" fill="#C4E5D9"/>
<path d="M438.858 573.013C438.858 574.009 437.886 574.756 436.589 574.756C435.4 574.756 434.318 574.009 434.318 573.013C434.318 572.017 435.289 571.27 436.589 571.27C437.886 571.27 438.858 572.017 438.858 573.013Z" fill="#C4E5D9"/>
<path d="M706.625 179.641C726.3 179.641 742.25 166.017 742.25 149.211C742.25 132.405 726.3 118.782 706.625 118.782C686.95 118.782 671 132.405 671 149.211C671 166.017 686.95 179.641 706.625 179.641Z" fill="#61DAFB"/>
<path d="M841.938 99.0294C835.063 96.894 827.875 94.7586 820.375 92.8901C822.25 86.4839 823.812 80.0776 825.062 73.9384C831.625 38.7042 824.438 13.8801 804.438 4.27081C798.5 1.33463 791.938 0 784.438 0C762.562 0 734.75 13.8801 706.625 37.1026C678.5 13.8801 650.687 0 628.812 0C621.312 0 614.75 1.33463 608.813 4.27081C588.813 14.1471 581.625 38.9711 588.188 73.9384C589.438 80.0776 591 86.4839 592.875 92.8901C585.375 94.7586 578.188 96.627 571.313 99.0294C532.25 111.842 511 129.459 511 149.211C511 168.964 532.563 186.581 571.313 199.393C578.188 201.529 585.375 203.664 592.875 205.533C591 211.939 589.438 218.345 588.188 224.484C581.625 259.719 588.813 284.543 608.813 294.152C614.75 297.088 621.312 298.423 628.812 298.423C651 298.423 678.812 284.543 706.625 261.32C734.75 284.543 762.562 298.423 784.438 298.423C791.938 298.423 798.5 297.088 804.438 294.152C824.438 284.276 831.625 259.452 825.062 224.484C823.812 218.345 822.25 211.939 820.375 205.533C827.875 203.664 835.063 201.796 841.938 199.393C881 186.581 902.25 168.964 902.25 149.211C902.25 129.459 881 111.842 841.938 99.0294ZM795.687 17.6171C808.5 24.0233 812.875 43.7758 807.563 71.803C806.625 77.4084 805.063 83.2808 803.188 89.42C786.938 86.2169 769.75 84.0815 751.625 82.7469C741 69.9345 730.062 58.4567 719.125 48.0466C742.25 28.561 765.687 15.2148 784.75 15.2148C788.812 15.2148 792.562 16.0155 795.687 17.6171ZM760.688 175.904C755.063 184.446 748.5 192.987 741.625 201.529C730.062 202.33 718.5 202.596 706.625 202.596C694.437 202.596 682.875 202.33 671.625 201.529C664.75 192.987 658.5 184.446 652.875 175.904C646.937 167.095 641.312 158.02 636.312 149.211C641.312 140.403 646.937 131.327 652.875 122.519C658.5 113.977 665.062 105.436 671.938 96.894C683.5 96.0932 695.062 95.8263 706.937 95.8263C719.125 95.8263 730.688 96.0932 741.938 96.894C748.813 105.436 755.063 113.977 760.688 122.519C766.625 131.327 772.25 140.403 777.25 149.211C771.937 158.02 766.625 166.828 760.688 175.904ZM786.625 167.095C791.312 176.438 795.062 185.513 798.5 194.589C787.875 196.724 776.625 198.326 764.75 199.66C768.5 194.589 772.562 189.25 776 183.645C779.75 178.039 783.187 172.434 786.625 167.095ZM706.625 239.432C699.125 232.492 691.937 225.018 685.062 217.277C692.25 217.544 699.437 217.811 706.625 217.811C713.812 217.811 721 217.544 728.188 217.277C721.312 225.018 714.125 232.492 706.625 239.432ZM648.5 199.393C636.625 198.059 625.375 196.457 614.75 194.322C618.187 185.513 621.938 176.171 626.625 166.828C630.063 172.167 633.5 177.772 637.25 183.111C641 188.983 644.75 194.055 648.5 199.393ZM626.625 131.327C621.938 121.985 618.187 112.909 614.75 103.834C625.375 101.699 636.625 100.097 648.5 98.7624C644.75 103.834 640.687 109.173 637.25 114.778C633.5 120.383 630.063 125.989 626.625 131.327ZM706.625 58.9905C714.125 65.9306 721.312 73.4045 728.188 81.1454C721 80.8784 713.812 80.6115 706.625 80.6115C699.437 80.6115 692.25 80.8784 685.062 81.1454C691.937 73.4045 699.125 65.9306 706.625 58.9905ZM776 115.045L764.75 99.0294C776.625 100.364 787.875 101.966 798.5 104.101C795.062 112.909 791.312 122.252 786.625 131.594C783.187 125.989 779.75 120.383 776 115.045ZM605.688 71.803C600.375 43.7758 604.75 24.0233 617.562 17.6171C620.687 16.0155 624.437 15.2148 628.5 15.2148C647.25 15.2148 670.687 28.2941 694.125 48.0466C683.187 58.1898 672.25 69.9345 661.625 82.7469C643.5 84.0815 626.312 86.4839 610.062 89.42C608.187 83.2808 606.938 77.4084 605.688 71.803ZM528.5 149.211C528.5 136.666 546.313 123.32 577.563 113.443C583.813 111.308 590.688 109.439 597.563 107.838C602.563 121.184 608.812 135.331 616.312 149.478C608.812 163.625 602.25 177.505 597.563 190.852C554.438 180.175 528.5 164.159 528.5 149.211ZM617.562 280.806C604.75 274.399 600.375 254.647 605.688 226.62C606.625 221.014 608.187 215.142 610.062 209.003C626.312 212.206 643.5 214.341 661.625 215.676C672.25 228.488 683.187 239.966 694.125 250.376C671 269.862 647.562 283.208 628.5 283.208C624.437 283.208 620.687 282.407 617.562 280.806ZM807.563 226.62C812.875 254.647 808.5 274.399 795.687 280.806C792.562 282.407 788.812 283.208 784.75 283.208C766 283.208 742.562 270.129 719.125 250.376C730.062 240.233 741 228.488 751.625 215.676C769.75 214.341 786.938 211.939 803.188 209.003C805.063 215.142 806.313 221.014 807.563 226.62ZM835.688 184.979C829.438 187.115 822.563 188.983 815.688 190.585C810.687 177.239 804.438 163.091 796.938 148.944C804.438 134.797 811 120.917 815.688 107.571C858.813 118.248 884.75 134.264 884.75 149.211C884.75 161.757 866.625 175.103 835.688 184.979Z" fill="#61DAFB"/>
<path d="M215.507 220.3C136.871 287.478 81.0298 292.216 52.4325 263.595C26.0833 237.246 47.9362 171.155 101.191 105.886L0 4.71997H64.6643L165.178 105.234C101.747 169.052 64.761 237.004 83.8823 256.125C99.716 271.983 148.45 250.009 201.027 205.82L215.507 220.3Z" fill="#E1E1E6"/>
<path d="M399.976 275.462H335.312L234.798 174.949C298.229 111.154 335.215 43.1784 316.118 24.0813C300.284 8.22344 251.502 30.2214 198.924 74.4107L184.444 59.9308C263.105 -7.27178 318.97 -12.0341 347.568 16.5874C373.917 42.9366 352.088 109.027 298.809 174.296L400 275.462H399.976Z" fill="#E1E1E6"/>
<mask id="path-24-outside-1_199_30" maskUnits="userSpaceOnUse" x="452" y="317" width="48" height="48" fill="black">
<rect fill="white" x="452" y="317" width="48" height="48"/>
<path d="M472.178 363.227V318.227H479.814V363.227H472.178ZM453.496 344.545V336.909H498.496V344.545H453.496Z"/>
</mask>
<path d="M472.178 363.227H471.178V364.227H472.178V363.227ZM472.178 318.227V317.227H471.178V318.227H472.178ZM479.814 318.227H480.814V317.227H479.814V318.227ZM479.814 363.227V364.227H480.814V363.227H479.814ZM453.496 344.545H452.496V345.545H453.496V344.545ZM453.496 336.909V335.909H452.496V336.909H453.496ZM498.496 336.909H499.496V335.909H498.496V336.909ZM498.496 344.545V345.545H499.496V344.545H498.496ZM473.178 363.227V318.227H471.178V363.227H473.178ZM472.178 319.227H479.814V317.227H472.178V319.227ZM478.814 318.227V363.227H480.814V318.227H478.814ZM479.814 362.227H472.178V364.227H479.814V362.227ZM454.496 344.545V336.909H452.496V344.545H454.496ZM453.496 337.909H498.496V335.909H453.496V337.909ZM497.496 336.909V344.545H499.496V336.909H497.496ZM498.496 343.545H453.496V345.545H498.496V343.545Z" fill="#E1E1E6" mask="url(#path-24-outside-1_199_30)"/>
</svg>
